<svg width="605" height="60" viewBox="0 0 605 60" fill="none" xmlns="http://www.w3.org/2000/svg">
<g clip-path="url(#clip0)">
<path d="M380.539 25.0976H398.957H402.111V29.7798H398.957H391.834V43.2157H400.788C401.836 43.3369 402.894 43.3369 403.942 43.2157V48.2033C402.893 48.1055 401.837 48.1055 400.788 48.2033H378.504C377.387 48.1049 376.264 48.1049 375.146 48.2033V42.9104H378.504H387.56V29.3727H381.048H377.894V24.894L380.539 25.0976Z" fill="#040000"/>
<path d="M422.562 41.3845C427.861 38.3059 432.142 33.7408 434.874 28.2539L437.52 33.0379C434.457 38.1902 430.155 42.4942 425.004 45.5578C421.118 47.8935 416.844 49.5138 412.387 50.3418L409.538 45.8631C414.14 45.2807 418.574 43.7562 422.562 41.3845ZM422.562 30.4933L419.102 34.0558C416.495 31.3827 413.67 28.9313 410.657 26.7271L413.811 23.2664C416.871 25.3128 419.794 27.5569 422.562 29.9843V30.4933Z" fill="#040000"/>
<path d="M451.868 34.3612L449.426 38.1274C447.493 36.8041 443.932 34.5648 441.693 33.3434L444.135 29.5772C446.374 31.2058 450.138 33.1398 451.868 34.3612ZM454.616 42.0971C460.058 39.1179 464.594 34.7215 467.742 29.3737L470.286 33.9541C466.856 39.0471 462.248 43.2371 456.854 46.1686C453.325 48.1306 449.516 49.5381 445.56 50.3418L443.016 45.965C447.066 45.3095 450.983 44.0034 454.616 42.0971ZM457.058 26.7272L454.514 30.4933C452.054 28.7372 449.507 27.1066 446.882 25.6075L449.324 21.8414C451.563 23.0628 455.328 25.5057 457.058 26.7272ZM467.233 27.7451L464.282 29.0683C463.465 27.1838 462.477 25.3781 461.331 23.6736L464.18 22.5539C464.994 23.9789 466.317 26.2183 467.131 27.7451H467.233ZM471.914 25.9129L468.963 27.2361C468.078 25.4095 467.022 23.6712 465.808 22.045L468.963 21.0271C470.035 22.5811 470.987 24.2144 471.812 25.9129H471.914Z" fill="#040000"/>
<path d="M479.136 42.3003H498.57H502.335V47.4914H498.57H479.136H474.862V42.0967L479.136 42.3003ZM481.679 25.7089H495.721H499.486V30.6965H495.721H481.781H477.711V25.5054C479.027 25.6723 480.353 25.7403 481.679 25.7089Z" fill="#040000"/>
<path d="M533.679 27.3376C531.523 30.8738 528.768 34.008 525.538 36.6002L521.977 33.852C524.516 32.2686 526.643 30.1059 528.184 27.5411H510.581H506.511V23.0625C507.865 23.1712 509.226 23.1712 510.581 23.0625H528.795C529.945 23.1817 531.104 23.1817 532.254 23.0625L535.001 25.6072C534.505 26.1392 534.062 26.7188 533.679 27.3376ZM511.802 50.4433L507.833 47.1861C509.125 46.8031 510.332 46.1817 511.395 45.3539C513.273 43.9968 514.741 42.1486 515.638 40.012C516.536 37.8754 516.828 35.5329 516.482 33.2412C516.482 32.2234 516.482 31.3073 516.482 30.1876H521.367C521.163 38.5342 520.96 45.4557 511.802 50.4433Z" fill="#040000"/>
<path d="M546.494 46.0658V51.5623H542.831V46.0658H536.828V42.6051H542.831V40.5693H537.947V28.3548H542.831V26.5227H537.235V23.0619H542.831V19.9065H546.596V23.0619H551.989V26.5227H546.596V28.3548H551.582V40.5693H546.494V42.6051H552.193V46.0658H546.494ZM541.101 33.2406H543.238V31.2049H541.101V33.2406ZM541.101 37.8211H543.238V35.7853H541.101V37.8211ZM548.326 31.2049H546.087V33.2406H548.326V31.2049ZM548.326 35.7853H546.087V37.8211H548.326V35.7853ZM565.013 51.5623C565.051 50.9182 565.051 50.2725 565.013 49.6284L552.498 50.8498L551.786 46.8801H554.635C555.505 43.2198 556.185 39.5165 556.67 35.7853H552.6V31.7138H568.575V35.4799H560.536C559.824 39.1443 558.908 43.2158 558.094 46.2694H563.487C562.865 44.4222 562.117 42.6198 561.249 40.8747L564.708 39.5514C566.528 42.9346 567.832 46.5715 568.575 50.3409L565.013 51.5623ZM567.048 26.2173H553.617V22.1458H567.048V26.2173Z" fill="#040000"/>
<path d="M604.092 35.4824C603.274 38.5696 602.005 41.5193 600.327 44.2361C600.327 45.8647 601.039 46.679 601.446 46.7807C601.853 46.8825 602.158 45.2539 602.26 42.5057C603.007 43.398 603.902 44.1554 604.906 44.745C603.99 50.2415 602.463 51.4629 601.242 51.4629C600.021 51.4629 598.597 50.0379 597.783 47.595C596.525 49.1241 595.051 50.4614 593.408 51.5647C592.742 50.5876 591.956 49.6984 591.067 48.9183C591.937 48.4252 592.756 47.8454 593.509 47.1879H588.422V49.2236H585.369V34.9734H594.629V46.17C595.481 45.3837 596.233 44.4948 596.867 43.5235C596.867 40.7753 596.155 37.4163 595.951 33.3448H584.046V30.393H586.183C586.135 29.0427 585.895 27.706 585.471 26.4233H587.404H584.759V24.6929H583.436V51.5647H580.18V45.6611L573.26 47.0861L572.65 43.4218H574.583V24.6929H573.26V21.0286H584.86V22.8607H588.218V19.8071H591.678V22.8607H595.137V25.8126H592.186H594.527C594.018 27.3394 593.509 28.8662 593.102 29.884H595.85C595.85 26.7286 595.85 23.1661 595.85 19.7053H599.309V22.25L601.242 21.0286C602.54 22.6895 603.634 24.5008 604.499 26.4233L601.751 28.0519C601.03 26.2891 600.109 24.6155 599.004 23.0643C599.004 25.609 599.004 27.9501 599.004 30.1894H604.295V33.3448H599.207C599.1 35.0056 599.1 36.6716 599.207 38.3324L601.242 34.7698L604.092 35.4824ZM580.18 24.6929H577.941V28.3572H580.18V24.6929ZM580.18 31.5126H577.941V35.177H580.18V31.5126ZM580.18 42.2003V38.4342H577.941V42.6075L580.18 42.2003ZM588.116 25.9143C588.613 27.252 588.888 28.6615 588.93 30.0876H587.404H592.288H590.558C590.558 28.8662 591.271 27.1358 591.474 25.9143H588.116ZM588.116 37.8235V39.8592H591.271V37.8235H588.116ZM591.271 44.4396V42.4039H588.116V44.4396H591.271Z" fill="#040000"/>
<path d="M79.5569 17.7705H89.3251V59.2997H96.6513V17.7705H106.42V11.2561H79.5569V17.7705Z" fill="#040000"/>
<path d="M115.677 59.2997H137.452V52.4799H122.901V37.1101H135.519V30.5957H122.901V17.7705H137.452V11.2561H115.677V59.2997Z" fill="#040000"/>
<path d="M159.018 10.8486C157.494 10.7365 155.964 10.9403 154.523 11.4475C153.082 11.9546 151.761 12.754 150.644 13.7957C149.526 14.8373 148.635 16.0987 148.028 17.5008C147.42 18.9028 147.109 20.4153 147.113 21.9434V48.4081C147.028 49.9761 147.287 51.5435 147.871 53.0011C148.455 54.4586 149.35 55.7712 150.493 56.847C151.636 57.9229 153 58.7362 154.49 59.23C155.98 59.7239 157.56 59.8865 159.12 59.7065C162.125 59.7613 165.03 58.626 167.203 56.548C169.375 54.47 170.639 51.6175 170.719 48.6117V45.6599H163.698V48.001C163.774 48.6345 163.709 49.2768 163.51 49.8829C163.311 50.489 162.982 51.0442 162.545 51.5097C162.109 51.9751 161.577 52.3395 160.985 52.5774C160.393 52.8153 159.756 52.9209 159.12 52.8868C155.864 52.8868 154.744 50.7492 154.744 47.8992V23.3685C154.744 20.1113 155.558 17.7702 159.221 17.7702C159.85 17.7816 160.469 17.9225 161.041 18.1839C161.613 18.4452 162.125 18.8216 162.545 19.2895C162.965 19.7574 163.284 20.3068 163.482 20.9035C163.681 21.5002 163.754 22.1314 163.698 22.7577V24.9971H171.025V22.3506C171.072 20.7836 170.789 19.2243 170.195 17.7735C169.602 16.3227 168.71 15.0128 167.578 13.9285C166.446 12.8443 165.1 12.0099 163.625 11.4793C162.15 10.9488 160.581 10.7339 159.018 10.8486Z" fill="#040000"/>
<path d="M196.668 30.5957H187.612V11.2561H180.286V59.2997H187.612V36.7029H196.668V59.2997H203.994V11.2561H196.668V30.5957Z" fill="#040000"/>
<path d="M235.442 10.8485C233.918 10.7364 232.388 10.9402 230.947 11.4474C229.506 11.9545 228.185 12.7539 227.067 13.7956C225.95 14.8372 225.059 16.0986 224.452 17.5007C223.844 18.9027 223.532 20.4152 223.537 21.9433V48.408C223.452 49.976 223.711 51.5434 224.295 53.001C224.879 54.4586 225.773 55.7711 226.917 56.847C228.06 57.9228 229.424 58.7361 230.914 59.23C232.404 59.7239 233.984 59.8865 235.543 59.7064C238.549 59.7612 241.454 58.626 243.627 56.548C245.799 54.47 247.063 51.6175 247.143 48.6116V45.6598H239.919V48.0009C239.977 48.631 239.9 49.2662 239.695 49.8647C239.489 50.4631 239.159 51.0112 238.727 51.4728C238.294 51.9344 237.768 52.2991 237.185 52.5428C236.601 52.7865 235.972 52.9037 235.34 52.8867C231.982 52.8867 230.863 50.7491 230.863 47.8991V23.3684C230.863 20.1112 231.677 17.7701 235.34 17.7701C235.977 17.7675 236.608 17.8981 237.192 18.1533C237.775 18.4085 238.3 18.7828 238.731 19.2522C239.161 19.7217 239.49 20.2759 239.694 20.8795C239.899 21.4831 239.975 22.1228 239.919 22.7576V24.997H247.143V22.3505C247.187 20.8108 246.912 19.2787 246.337 17.85C245.762 16.4212 244.898 15.1266 243.8 14.047C242.701 12.9675 241.392 12.1262 239.954 11.5759C238.516 11.0255 236.98 10.7779 235.442 10.8485Z" fill="#040000"/>
<path d="M264.439 10.8486L253.043 59.2994H260.369L262.811 48.001H272.173L274.615 59.2994H281.941L270.545 10.8486H264.439ZM264.439 41.3848L267.696 25.506L270.748 41.3848H264.439Z" fill="#040000"/>
<path d="M306.363 36.6011L296.086 11.2561H289.879V59.2997H297.002V32.9368L306.77 55.8389L315.622 32.9368V59.2997H322.745V11.2561H316.538L306.363 36.6011Z" fill="#040000"/>
<path d="M343.495 10.8496H332.607V59.3003H339.933V38.9429H343.495C345.339 38.9971 347.176 38.6873 348.9 38.031C350.624 37.3748 352.203 36.3851 353.545 35.1184C354.886 33.8517 355.966 32.3329 356.72 30.6488C357.475 28.9647 357.891 27.1482 357.943 25.3034C358 23.39 357.665 21.4853 356.958 19.7062C356.252 17.9271 355.19 16.3112 353.837 14.9577C352.484 13.6041 350.868 12.5415 349.09 11.8351C347.311 11.1286 345.407 10.7933 343.495 10.8496ZM343.495 32.0213H339.933V17.7711H343.495C344.457 17.744 345.415 17.9068 346.314 18.2503C347.213 18.5938 348.036 19.1111 348.735 19.7728C349.435 20.4345 349.997 21.2276 350.389 22.1067C350.782 22.9858 350.998 23.9337 351.024 24.8962C350.998 25.8588 350.782 26.8067 350.389 27.6858C349.997 28.5649 349.435 29.3579 348.735 30.0196C348.036 30.6813 347.213 31.1987 346.314 31.5421C345.415 31.8856 344.457 32.0484 343.495 32.0213Z" fill="#040000"/>
<path d="M0.897217 59.299H69.7838L58.2857 39.8576C58.1293 39.6021 57.9011 39.3984 57.6297 39.2717C57.3583 39.145 57.0557 39.1009 56.7594 39.1451C51.8753 39.8576 19.925 43.6237 0.897217 59.5025L0.897217 59.299Z" fill="#C4C3C3"/>
<path d="M0.897217 59.2991C17.6863 49.2541 35.5334 41.0956 54.1139 34.972C54.2005 34.8956 54.2699 34.8016 54.3174 34.6963C54.3649 34.591 54.3895 34.4768 54.3895 34.3613C54.3895 34.2457 54.3649 34.1315 54.3174 34.0262C54.2699 33.9209 54.2005 33.827 54.1139 33.7505L35.2896 0.669678L0.897217 59.2991Z" fill="#11376B"/>
</g>
<defs>
<clipPath id="clip0">
<rect x="0.897217" y="0.669678" width="604.004" height="59.0366" fill="white"/>
</clipPath>
</defs>
</svg>
